<svg xmlns="http://www.w3.org/2000/svg" xmlns:xlink="http://www.w3.org/1999/xlink" width="160" zoomAndPan="magnify" viewBox="0 0 90 30.000001" height="40" preserveAspectRatio="xMidYMid meet" version="1.2"><defs><clipPath id="493696e8b9"><path d="M 1.453125 0 L 88.546875 0 L 88.546875 29.03125 L 1.453125 29.03125 Z M 1.453125 0 "/></clipPath><clipPath id="1c57b4d2f6"><path d="M 3.628906 1.21875 L 26.855469 1.21875 L 26.855469 28 L 3.628906 28 Z M 3.628906 1.21875 "/></clipPath><clipPath id="0524d2250d"><path d="M 29 5 L 88.546875 5 L 88.546875 23 L 29 23 Z M 29 5 "/></clipPath><clipPath id="70138f85ca"><path d="M 49 2 L 59.546875 2 L 59.546875 14 L 49 14 Z M 49 2 "/></clipPath><clipPath id="77088f8016"><path d="M 59 3 L 59.546875 3 L 59.546875 14 L 59 14 Z M 59 3 "/></clipPath><clipPath id="332dea33d1"><rect x="0" width="60" y="0" height="18"/></clipPath></defs><g id="716884db1b"><g clip-rule="nonzero" clip-path="url(#493696e8b9)"><path style=" stroke:none;fill-rule:nonzero;fill:#ffffff;fill-opacity:1;" d="M 1.453125 0 L 117.582031 0 L 117.582031 29.03125 L 1.453125 29.03125 Z M 1.453125 0 "/><path style=" stroke:none;fill-rule:nonzero;fill:#ffffff;fill-opacity:1;" d="M 1.453125 0 L 117.582031 0 L 117.582031 29.03125 L 1.453125 29.03125 Z M 1.453125 0 "/></g><g clip-rule="nonzero" clip-path="url(#1c57b4d2f6)"><path style=" stroke:none;fill-rule:nonzero;fill:#3b3f3f;fill-opacity:1;" d="M 25.691406 7.128906 L 16.390625 1.648438 C 15.675781 1.226562 14.792969 1.226562 14.082031 1.648438 L 4.78125 7.128906 C 4.066406 7.546875 3.628906 8.324219 3.628906 9.167969 L 3.628906 20.125 C 3.628906 20.945312 4.050781 21.699219 4.734375 22.132812 L 10.585938 18.644531 L 13.890625 21.003906 L 18.6875 18.367188 L 18.234375 17.496094 L 22.839844 17.671875 L 20.386719 21.652344 L 20.035156 20.964844 L 13.695312 24.453125 L 10.449219 22.132812 L 7.613281 23.824219 L 14.09375 27.644531 C 14.808594 28.0625 15.691406 28.0625 16.402344 27.644531 L 25.703125 22.164062 C 26.417969 21.742188 26.855469 20.964844 26.855469 20.125 L 26.855469 9.167969 C 26.84375 8.324219 26.40625 7.546875 25.691406 7.128906 Z M 12 18.539062 L 10.621094 17.558594 L 8.316406 18.9375 L 8.316406 12.105469 L 12 12.105469 Z M 17.078125 18.207031 L 13.949219 19.929688 L 13.394531 19.535156 L 13.394531 6.089844 L 17.078125 6.089844 Z M 22.15625 16.726562 L 18.472656 16.582031 L 18.472656 9.960938 L 22.15625 9.960938 Z M 22.15625 16.726562 "/></g><g clip-rule="nonzero" clip-path="url(#0524d2250d)"><g transform="matrix(1,0,0,1,29,5)"><g clip-path="url(#332dea33d1)"><g style="fill:#3b3f3f;fill-opacity:1;"><g transform="translate(0.742971, 13.073514)"><path style="stroke:none" d="M 8.65625 -5.203125 C 9.226562 -4.992188 9.671875 -4.675781 9.984375 -4.25 C 10.304688 -3.832031 10.46875 -3.328125 10.46875 -2.734375 C 10.46875 -1.859375 10.117188 -1.179688 9.421875 -0.703125 C 8.722656 -0.234375 7.707031 0 6.375 0 L 1 0 L 1 -9.96875 L 6.09375 -9.96875 C 7.363281 -9.96875 8.332031 -9.734375 9 -9.265625 C 9.664062 -8.796875 10 -8.160156 10 -7.359375 C 10 -6.878906 9.878906 -6.453125 9.640625 -6.078125 C 9.410156 -5.703125 9.082031 -5.410156 8.65625 -5.203125 Z M 3.78125 -7.921875 L 3.78125 -6 L 5.71875 -6 C 6.664062 -6 7.140625 -6.320312 7.140625 -6.96875 C 7.140625 -7.601562 6.664062 -7.921875 5.71875 -7.921875 Z M 6.15625 -2.03125 C 7.132812 -2.03125 7.625 -2.367188 7.625 -3.046875 C 7.625 -3.722656 7.132812 -4.0625 6.15625 -4.0625 L 3.78125 -4.0625 L 3.78125 -2.03125 Z M 6.15625 -2.03125 "/></g></g><g style="fill:#3b3f3f;fill-opacity:1;"><g transform="translate(11.68551, 13.073514)"><path style="stroke:none" d="M 10 0 L 9.96875 -5.28125 L 7.40625 -0.984375 L 6.15625 -0.984375 L 3.59375 -5.140625 L 3.59375 0 L 1 0 L 1 -9.96875 L 3.3125 -9.96875 L 6.8125 -4.21875 L 10.234375 -9.96875 L 12.546875 -9.96875 L 12.578125 0 Z M 10 0 "/></g></g><g style="fill:#3b3f3f;fill-opacity:1;"><g transform="translate(25.260517, 13.073514)"><path style="stroke:none" d="M 5.96875 0.203125 C 4.914062 0.203125 3.972656 -0.015625 3.140625 -0.453125 C 2.316406 -0.898438 1.664062 -1.515625 1.1875 -2.296875 C 0.71875 -3.085938 0.484375 -3.984375 0.484375 -4.984375 C 0.484375 -5.984375 0.71875 -6.875 1.1875 -7.65625 C 1.664062 -8.445312 2.316406 -9.0625 3.140625 -9.5 C 3.972656 -9.9375 4.914062 -10.15625 5.96875 -10.15625 C 6.875 -10.15625 7.691406 -9.992188 8.421875 -9.671875 C 9.148438 -9.359375 9.757812 -8.894531 10.25 -8.28125 L 8.453125 -6.65625 C 7.804688 -7.4375 7.023438 -7.828125 6.109375 -7.828125 C 5.566406 -7.828125 5.082031 -7.707031 4.65625 -7.46875 C 4.238281 -7.226562 3.910156 -6.894531 3.671875 -6.46875 C 3.441406 -6.039062 3.328125 -5.546875 3.328125 -4.984375 C 3.328125 -4.421875 3.441406 -3.921875 3.671875 -3.484375 C 3.910156 -3.054688 4.238281 -2.722656 4.65625 -2.484375 C 5.082031 -2.253906 5.566406 -2.140625 6.109375 -2.140625 C 7.023438 -2.140625 7.804688 -2.523438 8.453125 -3.296875 L 10.25 -1.671875 C 9.757812 -1.066406 9.148438 -0.601562 8.421875 -0.28125 C 7.691406 0.0390625 6.875 0.203125 5.96875 0.203125 Z M 5.96875 0.203125 "/></g></g><g style="fill:#3b3f3f;fill-opacity:1;"><g transform="translate(35.761938, 13.073514)"><path style="stroke:none" d=""/></g></g><g style="fill:#3b3f3f;fill-opacity:1;"><g transform="translate(39.902737, 13.073514)"><path style="stroke:none" d="M 4.5 0.203125 C 3.6875 0.203125 2.898438 0.101562 2.140625 -0.09375 C 1.390625 -0.300781 0.773438 -0.566406 0.296875 -0.890625 L 1.21875 -2.96875 C 1.664062 -2.675781 2.179688 -2.441406 2.765625 -2.265625 C 3.359375 -2.085938 3.941406 -2 4.515625 -2 C 5.597656 -2 6.140625 -2.265625 6.140625 -2.796875 C 6.140625 -3.085938 5.984375 -3.300781 5.671875 -3.4375 C 5.359375 -3.570312 4.863281 -3.71875 4.1875 -3.875 C 3.4375 -4.03125 2.804688 -4.203125 2.296875 -4.390625 C 1.796875 -4.578125 1.363281 -4.875 1 -5.28125 C 0.644531 -5.6875 0.46875 -6.238281 0.46875 -6.9375 C 0.46875 -7.539062 0.632812 -8.085938 0.96875 -8.578125 C 1.300781 -9.066406 1.796875 -9.453125 2.453125 -9.734375 C 3.109375 -10.015625 3.914062 -10.15625 4.875 -10.15625 C 5.53125 -10.15625 6.175781 -10.082031 6.8125 -9.9375 C 7.445312 -9.789062 8.007812 -9.578125 8.5 -9.296875 L 7.625 -7.203125 C 6.675781 -7.710938 5.757812 -7.96875 4.875 -7.96875 C 4.3125 -7.96875 3.898438 -7.882812 3.640625 -7.71875 C 3.390625 -7.550781 3.265625 -7.335938 3.265625 -7.078125 C 3.265625 -6.804688 3.414062 -6.601562 3.71875 -6.46875 C 4.019531 -6.34375 4.507812 -6.207031 5.1875 -6.0625 C 5.9375 -5.90625 6.5625 -5.734375 7.0625 -5.546875 C 7.5625 -5.359375 7.992188 -5.0625 8.359375 -4.65625 C 8.722656 -4.257812 8.90625 -3.710938 8.90625 -3.015625 C 8.90625 -2.421875 8.738281 -1.878906 8.40625 -1.390625 C 8.082031 -0.910156 7.585938 -0.523438 6.921875 -0.234375 C 6.253906 0.0546875 5.445312 0.203125 4.5 0.203125 Z M 4.5 0.203125 "/></g></g><g clip-rule="nonzero" clip-path="url(#70138f85ca)"><g style="fill:#3b3f3f;fill-opacity:1;"><g transform="translate(49.109262, 13.073514)"><path style="stroke:none" d="M 5.96875 0.203125 C 4.914062 0.203125 3.972656 -0.015625 3.140625 -0.453125 C 2.316406 -0.898438 1.664062 -1.515625 1.1875 -2.296875 C 0.71875 -3.085938 0.484375 -3.984375 0.484375 -4.984375 C 0.484375 -5.984375 0.71875 -6.875 1.1875 -7.65625 C 1.664062 -8.445312 2.316406 -9.0625 3.140625 -9.5 C 3.972656 -9.9375 4.914062 -10.15625 5.96875 -10.15625 C 6.875 -10.15625 7.691406 -9.992188 8.421875 -9.671875 C 9.148438 -9.359375 9.757812 -8.894531 10.25 -8.28125 L 8.453125 -6.65625 C 7.804688 -7.4375 7.023438 -7.828125 6.109375 -7.828125 C 5.566406 -7.828125 5.082031 -7.707031 4.65625 -7.46875 C 4.238281 -7.226562 3.910156 -6.894531 3.671875 -6.46875 C 3.441406 -6.039062 3.328125 -5.546875 3.328125 -4.984375 C 3.328125 -4.421875 3.441406 -3.921875 3.671875 -3.484375 C 3.910156 -3.054688 4.238281 -2.722656 4.65625 -2.484375 C 5.082031 -2.253906 5.566406 -2.140625 6.109375 -2.140625 C 7.023438 -2.140625 7.804688 -2.523438 8.453125 -3.296875 L 10.25 -1.671875 C 9.757812 -1.066406 9.148438 -0.601562 8.421875 -0.28125 C 7.691406 0.0390625 6.875 0.203125 5.96875 0.203125 Z M 5.96875 0.203125 "/></g></g></g><g clip-rule="nonzero" clip-path="url(#77088f8016)"><g style="fill:#3b3f3f;fill-opacity:1;"><g transform="translate(59.439927, 13.073514)"><path style="stroke:none" d="M 7.671875 -1.9375 L 3.453125 -1.9375 L 2.671875 0 L -0.203125 0 L 4.203125 -9.96875 L 6.96875 -9.96875 L 11.390625 0 L 8.453125 0 Z M 6.84375 -4.015625 L 5.5625 -7.203125 L 4.28125 -4.015625 Z M 6.84375 -4.015625 "/></g></g></g></g></g></g></g></svg>